<mxfile host="app.diagrams.net" modified="2021-06-04T19:02:49.520Z" agent="5.0 (X11; Linux x86_64) AppleWebKit/537.36 (KHTML, like Gecko) Chrome/91.0.4472.77 Safari/537.36" etag="zbJdH3B64OB0S2h3-DFq" version="14.7.6" type="github">
  <diagram id="K7vxBfUOR3E32aqaXmol" name="Page-1">
    <mxGraphModel dx="438" dy="761" grid="1" gridSize="10" guides="1" tooltips="1" connect="1" arrows="1" fold="1" page="1" pageScale="1" pageWidth="827" pageHeight="1169" math="0" shadow="0">
      <root>
        <mxCell id="0" />
        <mxCell id="1" parent="0" />
        <mxCell id="P-RF1JXskMPbk-WiRWE9-1" value="Converting of Image Distortion" style="rounded=0;whiteSpace=wrap;html=1;" vertex="1" parent="1">
          <mxGeometry x="40" y="200" width="140" height="80" as="geometry" />
        </mxCell>
        <mxCell id="P-RF1JXskMPbk-WiRWE9-2" value="Edge Detection and Inverse Perspective Transformation" style="rounded=0;whiteSpace=wrap;html=1;" vertex="1" parent="1">
          <mxGeometry x="240" y="200" width="140" height="80" as="geometry" />
        </mxCell>
        <mxCell id="P-RF1JXskMPbk-WiRWE9-3" value="Lane Detection" style="rounded=0;whiteSpace=wrap;html=1;" vertex="1" parent="1">
          <mxGeometry x="160" y="310" width="140" height="80" as="geometry" />
        </mxCell>
      </root>
    </mxGraphModel>
  </diagram>
</mxfile>
